<mxfile host="65bd71144e">
    <diagram id="kLEdpG78KgNn9b7NaJuD" name="Page-1">
        <mxGraphModel dx="2288" dy="1633" grid="1" gridSize="10" guides="1" tooltips="1" connect="1" arrows="1" fold="1" page="1" pageScale="1" pageWidth="1100" pageHeight="850" background="#ffffff" math="0" shadow="0">
            <root>
                <mxCell id="0"/>
                <mxCell id="1" parent="0"/>
                <mxCell id="35" value="" style="group" parent="1" vertex="1" connectable="0">
                    <mxGeometry x="80" y="20" width="250" height="640" as="geometry"/>
                </mxCell>
                <mxCell id="103" value="" style="group" parent="35" vertex="1" connectable="0">
                    <mxGeometry x="-40" y="-100" width="250" height="690" as="geometry"/>
                </mxCell>
                <mxCell id="4" value="" style="rounded=0;whiteSpace=wrap;html=1;fillColor=#fad7ac;strokeColor=#b46504;" parent="103" vertex="1">
                    <mxGeometry width="250" height="690" as="geometry"/>
                </mxCell>
                <mxCell id="5" value="Scanner Codes Qr" style="ellipse;whiteSpace=wrap;html=1;fillColor=#d5e8d4;gradientColor=#97d077;strokeColor=#82b366;fontColor=#000000;fontSize=13;" parent="103" vertex="1">
                    <mxGeometry x="65" y="160" width="105" height="63.2" as="geometry"/>
                </mxCell>
                <mxCell id="16" value="Generer et imprimer le recus" style="ellipse;whiteSpace=wrap;html=1;fillColor=#d5e8d4;gradientColor=#97d077;strokeColor=#82b366;fontColor=#000000;fontSize=13;" parent="103" vertex="1">
                    <mxGeometry x="65" y="420" width="105" height="67.2" as="geometry"/>
                </mxCell>
                <mxCell id="17" value="Ajuster les infos du recu et confirmer" style="ellipse;whiteSpace=wrap;html=1;fillColor=#d5e8d4;gradientColor=#97d077;strokeColor=#82b366;fontColor=#000000;fontSize=13;" parent="103" vertex="1">
                    <mxGeometry x="65" y="336.6" width="105" height="66.8" as="geometry"/>
                </mxCell>
                <mxCell id="18" value="Afficher les infos du recu" style="ellipse;whiteSpace=wrap;html=1;fillColor=#d5e8d4;gradientColor=#97d077;strokeColor=#82b366;fontColor=#000000;fontSize=13;" parent="103" vertex="1">
                    <mxGeometry x="65" y="240" width="105" height="66.4" as="geometry"/>
                </mxCell>
                <mxCell id="20" value="Mettre a jour le stock des produits" style="ellipse;whiteSpace=wrap;html=1;fillColor=#d5e8d4;gradientColor=#97d077;strokeColor=#82b366;fontColor=#000000;fontSize=13;" parent="103" vertex="1">
                    <mxGeometry x="67.32" y="530" width="102.68" height="67.6" as="geometry"/>
                </mxCell>
                <mxCell id="21" value="stocker les infos relative au recu" style="ellipse;whiteSpace=wrap;html=1;fillColor=#d5e8d4;gradientColor=#97d077;strokeColor=#82b366;fontColor=#000000;fontSize=13;" parent="103" vertex="1">
                    <mxGeometry x="65" y="610" width="105" height="65.2" as="geometry"/>
                </mxCell>
                <mxCell id="23" value="Selectioner les Produits" style="ellipse;whiteSpace=wrap;html=1;fillColor=#d5e8d4;gradientColor=#97d077;strokeColor=#82b366;fontColor=#000000;fontSize=13;" parent="103" vertex="1">
                    <mxGeometry x="65" y="90" width="115" height="60" as="geometry"/>
                </mxCell>
                <mxCell id="48" style="edgeStyle=none;html=1;exitX=0.5;exitY=0.5;exitDx=0;exitDy=0;exitPerimeter=0;entryX=0;entryY=0.5;entryDx=0;entryDy=0;fontSize=13;" parent="1" source="41" target="5" edge="1">
                    <mxGeometry relative="1" as="geometry">
                        <mxPoint x="410" y="400" as="targetPoint"/>
                    </mxGeometry>
                </mxCell>
                <mxCell id="49" style="edgeStyle=none;html=1;entryX=0;entryY=0.5;entryDx=0;entryDy=0;exitX=0.5;exitY=0.5;exitDx=0;exitDy=0;exitPerimeter=0;fontSize=13;" parent="1" source="41" target="17" edge="1">
                    <mxGeometry relative="1" as="geometry"/>
                </mxCell>
                <mxCell id="41" value="Caissier" style="shape=umlActor;verticalLabelPosition=bottom;verticalAlign=top;html=1;fillColor=#f8cecc;gradientColor=#ea6b66;strokeColor=#b85450;fontColor=#000000;" parent="1" vertex="1">
                    <mxGeometry x="-100" y="162.5" width="30" height="60" as="geometry"/>
                </mxCell>
                <mxCell id="60" value="" style="group;fontSize=13;" parent="1" vertex="1" connectable="0">
                    <mxGeometry x="370" y="340" width="85" height="70" as="geometry"/>
                </mxCell>
                <mxCell id="52" value="" style="sketch=0;aspect=fixed;html=1;points=[];align=center;image;fontSize=13;image=img/lib/mscae/App_Service_Mobile_App.svg;" parent="60" vertex="1">
                    <mxGeometry x="26.399999999999977" width="27.2" height="40" as="geometry"/>
                </mxCell>
                <mxCell id="54" value="app mobile" style="text;html=1;align=center;verticalAlign=middle;resizable=0;points=[];autosize=1;strokeColor=none;fillColor=none;fontSize=13;" parent="60" vertex="1">
                    <mxGeometry x="-5" y="40" width="90" height="30" as="geometry"/>
                </mxCell>
                <mxCell id="64" style="edgeStyle=none;html=1;fontSize=13;exitX=0.022;exitY=0.525;exitDx=0;exitDy=0;exitPerimeter=0;" parent="1" source="52" target="20" edge="1">
                    <mxGeometry relative="1" as="geometry">
                        <mxPoint x="390" y="350" as="sourcePoint"/>
                    </mxGeometry>
                </mxCell>
                <mxCell id="65" style="edgeStyle=none;html=1;entryX=1;entryY=0.5;entryDx=0;entryDy=0;fontSize=13;" parent="1" source="52" target="21" edge="1">
                    <mxGeometry relative="1" as="geometry"/>
                </mxCell>
                <mxCell id="92" style="edgeStyle=none;html=1;entryX=1;entryY=0.5;entryDx=0;entryDy=0;fontSize=13;exitX=0.5;exitY=0.5;exitDx=0;exitDy=0;exitPerimeter=0;" parent="1" source="7" target="91" edge="1">
                    <mxGeometry relative="1" as="geometry"/>
                </mxCell>
                <mxCell id="7" value="Manager" style="shape=umlActor;verticalLabelPosition=bottom;verticalAlign=top;html=1;fillColor=#f8cecc;gradientColor=#ea6b66;strokeColor=#b85450;fontColor=#000000;fontSize=13;" parent="1" vertex="1">
                    <mxGeometry x="394.99999999999994" y="25.94" width="30" height="60" as="geometry"/>
                </mxCell>
                <mxCell id="9" value="Client&lt;br style=&quot;font-size: 13px;&quot;&gt;" style="shape=umlActor;verticalLabelPosition=bottom;verticalAlign=top;html=1;fillColor=#f8cecc;gradientColor=#ea6b66;strokeColor=#b85450;fontColor=#000000;fontSize=13;" parent="1" vertex="1">
                    <mxGeometry x="394.99999999999994" y="140" width="30" height="60" as="geometry"/>
                </mxCell>
                <mxCell id="50" style="edgeStyle=none;html=1;entryX=1;entryY=0.5;entryDx=0;entryDy=0;fontSize=13;exitX=0.5;exitY=0.5;exitDx=0;exitDy=0;exitPerimeter=0;" parent="1" source="9" target="23" edge="1">
                    <mxGeometry relative="1" as="geometry"/>
                </mxCell>
                <mxCell id="75" style="edgeStyle=none;html=1;entryX=1;entryY=0.5;entryDx=0;entryDy=0;fontSize=13;" parent="1" source="52" target="18" edge="1">
                    <mxGeometry relative="1" as="geometry"/>
                </mxCell>
                <mxCell id="76" style="edgeStyle=none;html=1;entryX=1;entryY=0.5;entryDx=0;entryDy=0;fontSize=13;" parent="1" source="52" target="5" edge="1">
                    <mxGeometry relative="1" as="geometry"/>
                </mxCell>
                <mxCell id="77" style="edgeStyle=none;html=1;entryX=1;entryY=0.5;entryDx=0;entryDy=0;fontSize=13;" parent="1" source="52" target="17" edge="1">
                    <mxGeometry relative="1" as="geometry"/>
                </mxCell>
                <mxCell id="81" style="edgeStyle=none;html=1;entryX=0;entryY=0.5;entryDx=0;entryDy=0;fontSize=13;" parent="1" source="79" target="16" edge="1">
                    <mxGeometry relative="1" as="geometry"/>
                </mxCell>
                <mxCell id="91" value="coller&amp;nbsp; les codes qr sur les produits" style="ellipse;whiteSpace=wrap;html=1;fillColor=#d5e8d4;gradientColor=#97d077;strokeColor=#82b366;fontColor=#000000;" parent="1" vertex="1">
                    <mxGeometry x="105" y="-60" width="115" height="60" as="geometry"/>
                </mxCell>
                <mxCell id="95" value="" style="group" parent="1" vertex="1" connectable="0">
                    <mxGeometry x="890" y="140" width="70" height="65" as="geometry"/>
                </mxCell>
                <mxCell id="93" value="" style="aspect=fixed;perimeter=ellipsePerimeter;html=1;align=center;shadow=0;dashed=0;spacingTop=3;image;image=img/lib/active_directory/internet_globe.svg;" parent="95" vertex="1">
                    <mxGeometry x="15" width="40" height="40" as="geometry"/>
                </mxCell>
                <mxCell id="94" value="app web" style="text;html=1;align=center;verticalAlign=middle;resizable=0;points=[];autosize=1;strokeColor=none;fillColor=none;" parent="95" vertex="1">
                    <mxGeometry y="35" width="70" height="30" as="geometry"/>
                </mxCell>
                <mxCell id="98" value="" style="group;fontSize=13;" parent="1" vertex="1" connectable="0">
                    <mxGeometry x="540" y="-40" width="250" height="465" as="geometry"/>
                </mxCell>
                <mxCell id="104" value="" style="group;fontSize=13;" parent="98" vertex="1" connectable="0">
                    <mxGeometry y="20" width="250" height="400" as="geometry"/>
                </mxCell>
                <mxCell id="96" value="" style="rounded=0;whiteSpace=wrap;html=1;fillColor=#fad7ac;strokeColor=#b46504;fontSize=13;" parent="104" vertex="1">
                    <mxGeometry width="250" height="400" as="geometry"/>
                </mxCell>
                <mxCell id="27" value="Authhentification" style="ellipse;whiteSpace=wrap;html=1;fillColor=#d5e8d4;gradientColor=#97d077;strokeColor=#82b366;fontColor=#000000;container=0;fontSize=13;" parent="104" vertex="1">
                    <mxGeometry x="65" y="105.9375" width="110" height="58.125" as="geometry"/>
                </mxCell>
                <mxCell id="29" value="Afficher la liste des produits avec leurs infos et codes QR" style="ellipse;whiteSpace=wrap;html=1;fillColor=#d5e8d4;gradientColor=#97d077;strokeColor=#82b366;fontColor=#000000;container=0;fontSize=13;" parent="104" vertex="1">
                    <mxGeometry x="62.5" y="173.75" width="125" height="67.8125" as="geometry"/>
                </mxCell>
                <mxCell id="28" value="Ajouter, Modifier et Suprimer des Produits" style="ellipse;whiteSpace=wrap;html=1;fillColor=#d5e8d4;gradientColor=#97d077;strokeColor=#82b366;fontColor=#000000;container=0;fontSize=13;" parent="104" vertex="1">
                    <mxGeometry x="60" y="251.25" width="130" height="58.13" as="geometry"/>
                </mxCell>
                <mxCell id="30" value="Afficher la liste des recus générés" style="ellipse;whiteSpace=wrap;html=1;fillColor=#d5e8d4;gradientColor=#97d077;strokeColor=#82b366;fontColor=#000000;container=0;fontSize=13;" parent="104" vertex="1">
                    <mxGeometry x="62.5" y="328.75" width="110" height="58.125" as="geometry"/>
                </mxCell>
                <mxCell id="34" value="Créer des Comptes d'utilisateurs" style="ellipse;whiteSpace=wrap;html=1;fillColor=#d5e8d4;gradientColor=#97d077;strokeColor=#82b366;fontColor=#000000;container=0;fontSize=13;" parent="104" vertex="1">
                    <mxGeometry x="67.5" y="18.74999999999997" width="110" height="58.125" as="geometry"/>
                </mxCell>
                <mxCell id="102" value="&lt;b&gt;&lt;font style=&quot;font-size: 15px;&quot;&gt;Coté Administrateur&lt;/font&gt;&lt;/b&gt;" style="text;html=1;align=center;verticalAlign=middle;resizable=0;points=[];autosize=1;strokeColor=none;fillColor=none;" parent="98" vertex="1">
                    <mxGeometry x="32.5" y="-5" width="170" height="30" as="geometry"/>
                </mxCell>
                <mxCell id="71" style="edgeStyle=none;html=1;exitX=0;exitY=0.75;exitDx=0;exitDy=0;entryX=1;entryY=0.5;entryDx=0;entryDy=0;" parent="1" source="93" target="34" edge="1">
                    <mxGeometry relative="1" as="geometry">
                        <mxPoint x="870" y="114.19794145474361" as="sourcePoint"/>
                        <mxPoint x="718.5699999999999" y="10" as="targetPoint"/>
                    </mxGeometry>
                </mxCell>
                <mxCell id="68" style="edgeStyle=none;html=1;entryX=1;entryY=0.5;entryDx=0;entryDy=0;exitX=0;exitY=0.75;exitDx=0;exitDy=0;" parent="1" source="93" target="27" edge="1">
                    <mxGeometry relative="1" as="geometry">
                        <mxPoint x="870" y="122.23971885243122" as="sourcePoint"/>
                    </mxGeometry>
                </mxCell>
                <mxCell id="69" style="edgeStyle=none;html=1;entryX=1;entryY=0.5;entryDx=0;entryDy=0;exitX=0;exitY=0.75;exitDx=0;exitDy=0;" parent="1" source="93" target="29" edge="1">
                    <mxGeometry relative="1" as="geometry">
                        <mxPoint x="870" y="134.2381796035877" as="sourcePoint"/>
                    </mxGeometry>
                </mxCell>
                <mxCell id="70" style="edgeStyle=none;html=1;entryX=1;entryY=0.5;entryDx=0;entryDy=0;exitX=0;exitY=0.75;exitDx=0;exitDy=0;" parent="1" source="93" target="30" edge="1">
                    <mxGeometry relative="1" as="geometry">
                        <mxPoint x="940" y="170" as="sourcePoint"/>
                    </mxGeometry>
                </mxCell>
                <mxCell id="97" style="edgeStyle=none;html=1;entryX=1;entryY=0.5;entryDx=0;entryDy=0;" parent="1" source="93" target="28" edge="1">
                    <mxGeometry relative="1" as="geometry"/>
                </mxCell>
                <mxCell id="62" style="edgeStyle=none;html=1;entryX=0;entryY=0.5;entryDx=0;entryDy=0;fontSize=13;" parent="1" source="7" target="28" edge="1">
                    <mxGeometry relative="1" as="geometry">
                        <mxPoint x="692.9611309523832" y="-106.79999999999995" as="targetPoint"/>
                    </mxGeometry>
                </mxCell>
                <mxCell id="67" style="edgeStyle=none;html=1;entryX=0;entryY=0.5;entryDx=0;entryDy=0;fontSize=13;" parent="1" source="7" target="27" edge="1">
                    <mxGeometry relative="1" as="geometry"/>
                </mxCell>
                <mxCell id="72" style="edgeStyle=none;html=1;entryX=0;entryY=0.5;entryDx=0;entryDy=0;fontSize=13;" parent="1" source="7" target="34" edge="1">
                    <mxGeometry relative="1" as="geometry"/>
                </mxCell>
                <mxCell id="100" value="&lt;b&gt;Gestion de stocks et Vente d'un Magasin&lt;/b&gt;" style="text;html=1;align=center;verticalAlign=middle;resizable=0;points=[];autosize=1;strokeColor=none;fillColor=none;fontSize=20;" parent="1" vertex="1">
                    <mxGeometry x="265" y="-145" width="410" height="40" as="geometry"/>
                </mxCell>
                <mxCell id="101" value="&lt;b style=&quot;&quot;&gt;&lt;font style=&quot;font-size: 15px;&quot;&gt;Coté Utilisateur&amp;nbsp;&lt;/font&gt;&lt;/b&gt;" style="text;html=1;align=center;verticalAlign=middle;resizable=0;points=[];autosize=1;strokeColor=none;fillColor=none;fontSize=13;" parent="1" vertex="1">
                    <mxGeometry x="85" y="-105" width="140" height="30" as="geometry"/>
                </mxCell>
                <mxCell id="109" value="" style="group" parent="1" vertex="1" connectable="0">
                    <mxGeometry x="-130" y="350" width="85" height="75" as="geometry"/>
                </mxCell>
                <mxCell id="79" value="" style="points=[];aspect=fixed;html=1;align=center;shadow=0;dashed=0;image;image=img/lib/allied_telesis/computer_and_terminals/POS_Printer.svg;" parent="109" vertex="1">
                    <mxGeometry x="19.999999999999886" width="45.93" height="40" as="geometry"/>
                </mxCell>
                <mxCell id="80" value="imprimante" style="text;html=1;align=center;verticalAlign=middle;resizable=0;points=[];autosize=1;strokeColor=none;fillColor=none;" parent="109" vertex="1">
                    <mxGeometry y="35" width="80" height="30" as="geometry"/>
                </mxCell>
            </root>
        </mxGraphModel>
    </diagram>
</mxfile>